# xmcd
#
# Track frame offsets: 
#        150
#        13617
#        25700
#        44698
#        55552
#        68896
#        80855
#        91961
#        105046
#        114683
#        126955
#        140305
#        155622
#        176408
#        191889
#        206612
#
# Disc length: 2979 seconds
#
# Revision: 2
# Processed by: cddbd v1.5.2PL0 Copyright (c) Steve Scherf et al.
# Submitted via: ExactAudioCopy v0.99pb5
#
DISCID=d70ba110
DTITLE=Various Artist - American Spirit [CD 1)
DYEAR=2002
DGENRE=Blues
TTITLE0=Billy Swan - I Can help
TTITLE1=Tammy Wynett - Stand By Your Man
TTITLE2=Bobby Gentry - Ode To Billy Joe
TTITLE3=Roger Miller - King Of The Road
TTITLE4=BJ Thomas - Raindrops Keep Fallin' On My Head
TTITLE5=Johnny Cash - Ring Of Fire
TTITLE6=Willie Nelson - On The Road Again
TTITLE7=Dolly Parton - I Will Always Love You
TTITLE8=Waylon Jennings - Good Ol' Boys
TTITLE9=Merle Haggard - Okie From Muskogee
TTITLE10=Tim McGraw - Indian Outlaw
TTITLE11=Hal Ketchum - Long Way Down
TTITLE12=Country Boy - Calvin Russell
TTITLE13=Hank Williams III - 7 Months, 39 Days
TTITLE14=Bellamy Brothers - Let Your Love Flow
TTITLE15=Neal Casal - Camarillo
EXTD=
EXTT0=
EXTT1=
EXTT2=
EXTT3=
EXTT4=
EXTT5=
EXTT6=
EXTT7=
EXTT8=
EXTT9=
EXTT10=
EXTT11=
EXTT12=
EXTT13=
EXTT14=
EXTT15=
PLAYORDER=
